<svg id="Layer_1" data-name="Layer 1" xmlns="http://www.w3.org/2000/svg" viewBox="0 0 538.96 500"><defs><style>.cls-1{fill:#fff;}</style></defs><title>favicon</title><path class="cls-1" d="M346.79,250h0c-64.66,0-108.14,66.25-82.42,125.57L415,723h0l80.7-197.62a89.82,89.82,0,0,0-.75-69.71L429.2,304.09A89.83,89.83,0,0,0,346.79,250Z" transform="translate(-256.85 -250)"/><path class="cls-1" d="M705.08,250a90.63,90.63,0,0,0-83.91,56.37L535,517.37,440,750H630a8.65,8.65,0,0,0,8-5.38L789,374.91C813.34,315.28,769.48,250,705.08,250Z" transform="translate(-256.85 -250)"/></svg>